<?xml version="1.0" encoding="UTF-8"?><svg id="Ebene_1" xmlns="http://www.w3.org/2000/svg" xmlns:xlink="http://www.w3.org/1999/xlink" viewBox="0 0 135.05 77.91"><defs><style>.cls-1{fill:none;}.cls-2{clip-path:url(#clippath);}.cls-3{fill:#fff;}.cls-4{fill:#f5160d;}.cls-5{fill:#f44b12;}.cls-6{fill:#fbce14;}.cls-7{fill:#121211;}.cls-8{fill:#155a3c;}</style><clipPath id="clippath"><rect class="cls-1" x="0" width="135.05" height="77.91"/></clipPath></defs><g id="Gruppe_70"><g class="cls-2"><g id="Gruppe_69"><path id="Pfad_556" class="cls-3" d="M135.05,0V47.27h-21.83c-17.2,27.86-53.74,36.5-81.6,19.3-7.85-4.85-14.46-11.45-19.3-19.3-1.11-1.79-2.12-3.64-3.03-5.54-.65-1.35-1.25-2.72-1.79-4.12-1.04-2.67-1.89-5.4-2.53-8.19-1.98-8.74-1.98-17.82,0-26.56,.23-.96,.46-1.92,.74-2.86H135.05Z"/><path id="Pfad_557" class="cls-8" d="M19.81,8.48v.81h2.37v4.42h.89v-5.23h-3.25Zm.86,3.88c-.56,.32-1.2,.49-1.85,.48-.54,0-1.08-.11-1.56-.35-.49-.24-.92-.57-1.28-.98-.37-.42-.66-.9-.86-1.43-.2-.54-.3-1.12-.3-1.7,0-.56,.09-1.12,.26-1.65,.17-.52,.43-1,.77-1.43,.34-.42,.75-.76,1.23-1.01,.49-.26,1.04-.39,1.6-.38,.66,0,1.32,.15,1.9,.47,.59,.33,1.07,.84,1.36,1.45l.81-.54c-.34-.69-.86-1.27-1.5-1.68-.77-.46-1.66-.69-2.56-.65-.68,0-1.35,.14-1.96,.44-.6,.29-1.13,.69-1.56,1.19-.44,.5-.79,1.08-1.03,1.71-.25,.66-.37,1.35-.37,2.05,0,.68,.12,1.35,.37,1.98,.24,.63,.6,1.22,1.04,1.73,.44,.52,.98,.94,1.58,1.24,1.86,.92,4.11,.42,5.41-1.19,.06-.06,.11-.12,.16-.19v-1.1c-.05,.07-.11,.14-.16,.2-.41,.52-.92,.97-1.5,1.31"/><path id="Pfad_558" class="cls-8" d="M26.27,12.78v-4.06h5.21v-.89h-5.21V3.99h5.97v-.93h-7.02V13.71h7.15v-.93h-6.11Z"/><path id="Pfad_559" class="cls-8" d="M43.78,3.06l-4.18,7.3-4.16-7.3h-1.08V13.71h1.06V5.04l3.87,6.74h.65l3.85-6.74V13.71h1.06V3.06h-1.07Z"/><path id="Pfad_560" class="cls-8" d="M48.56,12.78v-4.06h5.21v-.89h-5.21V3.99h5.97v-.93h-7.02V13.71h7.16v-.93h-6.11Z"/><rect id="Rechteck_57" class="cls-8" x="56.65" y="3.06" width="1.05" height="10.65"/><path id="Pfad_561" class="cls-8" d="M68.22,3.08V11.94l-6.99-8.88h-.87V13.71h1.05V5l6.89,8.71h.98V3.08h-1.06Z"/><path id="Pfad_562" class="cls-8" d="M79.81,3.08V11.94l-6.99-8.88h-.87V13.71h1.05V5l6.88,8.71h.98V3.08h-1.05Z"/><path id="Pfad_563" class="cls-8" d="M88.55,1.41h.87V0h-.87V1.41Zm-2.23,0h.86V0h-.86V1.41Zm4.98,1.65v5.37c0,.54-.06,1.07-.16,1.6-.1,.5-.29,.98-.55,1.42-.25,.42-.62,.77-1.05,1.01-.52,.27-1.1,.4-1.69,.38-.57,.02-1.14-.1-1.65-.36-.43-.23-.79-.58-1.05-1-.27-.44-.46-.92-.56-1.43-.11-.53-.17-1.07-.17-1.62V3.06h-1.03v5.37c0,.67,.08,1.33,.23,1.98,.15,.61,.4,1.19,.74,1.71,.35,.51,.82,.93,1.38,1.2,1.34,.6,2.87,.61,4.22,.02,.55-.28,1.02-.68,1.38-1.17,.37-.52,.63-1.1,.78-1.71,.16-.67,.24-1.35,.24-2.04V3.06h-1.05Z"/><path id="Pfad_564" class="cls-8" d="M93.77,3.06v.93h3.79V13.71h1.05V3.99h3.79v-.93h-8.64Z"/><path id="Pfad_565" class="cls-8" d="M111.59,3.06h-8.34v.93h7.12l-7.24,8.9v.82h8.44v-.93h-7.14l7.15-8.89v-.83Z"/><rect id="Rechteck_58" class="cls-8" x="113.43" y="3.06" width="1.05" height="10.65"/><path id="Pfad_566" class="cls-8" d="M122.48,8.48v.81h2.37v4.42h.88v-5.23h-3.25Zm.87,3.88c-.56,.32-1.2,.49-1.85,.48-.54,0-1.08-.11-1.56-.35-.49-.24-.93-.57-1.28-.98-.37-.42-.66-.9-.86-1.43-.2-.54-.3-1.12-.3-1.7,0-.56,.09-1.12,.26-1.65,.17-.52,.43-1,.77-1.43,.34-.42,.75-.76,1.23-1.01,.49-.26,1.04-.39,1.6-.38,.66,0,1.32,.15,1.9,.47,.59,.33,1.07,.84,1.36,1.45l.81-.54c-.34-.69-.86-1.27-1.5-1.68-.77-.47-1.67-.69-2.57-.65-.68,0-1.35,.15-1.96,.44-.59,.29-1.12,.69-1.55,1.19-.44,.5-.79,1.08-1.03,1.71-.25,.66-.38,1.35-.37,2.06,0,.68,.13,1.35,.37,1.98,.24,.63,.59,1.22,1.03,1.73,.44,.51,.98,.93,1.59,1.24,.62,.3,1.3,.46,1.98,.46,.45,0,.89-.07,1.31-.21,.54-.18,1.04-.46,1.48-.82,.22-.19,.43-.39,.62-.61,.06-.06,.11-.12,.16-.19v-1.11c-.05,.07-.11,.14-.16,.2-.41,.52-.92,.97-1.5,1.31"/><path id="Pfad_567" class="cls-8" d="M128.95,12.78v-4.06h5.21v-.89h-5.21V3.99h5.97v-.93h-7.02V13.71h7.15v-.93h-6.1Z"/><path id="Pfad_568" class="cls-7" d="M21.34,24.14c-.34-.4-.78-.71-1.27-.89-.63-.24-1.28-.43-1.95-.56-.56-.12-1.12-.28-1.67-.46-.37-.11-.7-.31-.96-.58-.22-.28-.33-.63-.31-.98-.02-.55,.22-1.09,.65-1.43,.6-.4,1.32-.59,2.03-.53,.3,0,.6,.03,.9,.09,.27,.05,.54,.13,.8,.24,.24,.09,.46,.21,.67,.35,.19,.13,.37,.28,.52,.45l.51-.83c-.29-.26-.62-.48-.96-.67-.36-.18-.73-.32-1.12-.41-.43-.1-.87-.14-1.31-.14-.67-.01-1.33,.11-1.95,.36-.53,.21-1,.56-1.34,1.02-.33,.49-.5,1.07-.48,1.65-.03,.48,.11,.96,.38,1.36,.3,.37,.69,.66,1.14,.83,.6,.24,1.23,.43,1.86,.56,.6,.13,1.18,.3,1.76,.49,.4,.13,.77,.35,1.07,.65,.25,.29,.38,.66,.36,1.04,.03,.55-.24,1.08-.71,1.38-.6,.34-1.29,.5-1.98,.46-.39,0-.77-.04-1.15-.11-.36-.07-.71-.18-1.04-.32-.31-.13-.6-.29-.88-.47-.25-.16-.48-.35-.69-.56l-.52,.85c.38,.34,.8,.62,1.25,.86,.45,.22,.93,.39,1.43,.51,.52,.12,1.05,.17,1.58,.17,.51,0,1.03-.05,1.53-.17,.43-.1,.84-.28,1.21-.53,.33-.23,.6-.54,.79-.89,.2-.39,.3-.83,.28-1.27,.03-.54-.13-1.07-.45-1.5"/><path id="Pfad_569" class="cls-7" d="M22.53,17.85v.92h3.77v9.66h1.04v-9.66h3.77v-.92h-8.58Z"/><rect id="Rechteck_59" class="cls-7" x="32.69" y="17.85" width="1.04" height="10.58"/><path id="Pfad_570" class="cls-7" d="M43.34,18.76v-.92h-6.95v10.59h1.05v-4.91h4.97v-.86h-4.97v-3.9h5.9Z"/><path id="Pfad_571" class="cls-7" d="M44.1,17.85v.92h3.77v9.66h1.04v-9.66h3.77v-.92h-8.58Z"/><path id="Pfad_572" class="cls-7" d="M61.98,17.85v5.33c0,.53-.06,1.06-.16,1.58-.1,.5-.29,.97-.55,1.41-.25,.42-.61,.76-1.03,1.01-.52,.27-1.1,.4-1.68,.38-.57,.02-1.13-.1-1.64-.36-.43-.24-.79-.58-1.04-.99-.27-.44-.46-.92-.56-1.42-.12-.53-.18-1.07-.18-1.6v-5.34h-1.03v5.33c0,.66,.08,1.32,.24,1.96,.15,.61,.4,1.19,.74,1.71,.35,.51,.82,.92,1.37,1.2,.66,.32,1.39,.47,2.12,.45,.71,.02,1.42-.13,2.07-.43,.54-.27,1.02-.67,1.38-1.16,.36-.51,.62-1.09,.77-1.7,.16-.66,.24-1.34,.24-2.03v-5.34h-1.04Z"/><path id="Pfad_573" class="cls-7" d="M73.32,17.86v8.81l-6.95-8.82h-.86v10.58h1.04v-8.67l6.84,8.67h.97v-10.57h-1.04Z"/><path id="Pfad_574" class="cls-7" d="M82.3,23.22v.81h2.36v4.4h.88v-5.21h-3.24Zm.86,3.86c-.56,.32-1.19,.48-1.83,.48-.54,0-1.08-.12-1.56-.35-.48-.24-.91-.57-1.27-.97-.37-.42-.66-.9-.85-1.42-.2-.54-.3-1.11-.29-1.68,0-.56,.08-1.11,.26-1.64,.17-.52,.43-1,.77-1.42,.33-.41,.74-.75,1.21-1,.49-.25,1.04-.38,1.6-.37,.66,0,1.3,.15,1.88,.46,.59,.33,1.07,.83,1.36,1.44l.8-.53c-.34-.68-.86-1.26-1.5-1.67-.77-.46-1.65-.68-2.55-.64-.68,0-1.35,.14-1.95,.44-.59,.28-1.12,.68-1.55,1.18-.44,.5-.78,1.08-1.02,1.7-.24,.65-.37,1.34-.36,2.03,0,.67,.12,1.34,.36,1.97,.24,.64,.59,1.22,1.04,1.73,.43,.52,.97,.94,1.58,1.24,.61,.31,1.29,.46,1.97,.46,1.32-.01,2.57-.61,3.4-1.63,.05-.06,.11-.12,.16-.18v-1.11l-.16,.2c-.42,.52-.93,.96-1.5,1.31"/><path id="Pfad_575" class="cls-5" d="M49.67,32.63v4.28h-4.8v-4.28h-2.06v10.58h2.05v-4.51h4.8v4.51h2.04v-10.58h-2.04Z"/><path id="Pfad_576" class="cls-5" d="M58.88,32.63h-2.09l-3.91,10.58h2.12l.88-2.64h3.89l.88,2.64h2.11l-3.89-10.58Zm-2.51,6.5l1.47-4.37,1.45,4.37h-2.92Z"/><path id="Pfad_577" class="cls-5" d="M71.04,32.65v6.95l-5.45-6.97h-1.66v10.58h2.05v-6.8l5.4,6.8h1.7v-10.56h-2.04Z"/><path id="Pfad_578" class="cls-5" d="M82.48,38.62c-.3-.42-.71-.75-1.18-.96-.58-.27-1.19-.47-1.81-.61-.53-.14-.98-.27-1.34-.39-.29-.08-.57-.23-.8-.43-.18-.18-.28-.43-.27-.68-.02-.35,.14-.68,.43-.88,.38-.23,.81-.34,1.25-.31,.32,0,.63,.04,.94,.13,.29,.07,.58,.18,.86,.3,.23,.1,.46,.22,.67,.35,.14,.08,.27,.17,.38,.27l.91-1.67c-.33-.22-.68-.42-1.04-.58-.4-.18-.82-.32-1.24-.43-.47-.11-.94-.17-1.42-.16-.67,0-1.33,.12-1.95,.38-.56,.23-1.05,.62-1.4,1.11-.36,.54-.54,1.17-.52,1.82-.02,.46,.09,.92,.33,1.33,.25,.38,.59,.68,1,.89,.54,.27,1.1,.49,1.68,.64,.56,.14,1.04,.28,1.44,.42,.34,.1,.66,.26,.95,.47,.22,.18,.35,.46,.33,.75,.02,.32-.14,.63-.41,.81-.39,.21-.83,.3-1.27,.28-.4,0-.79-.05-1.18-.15-.37-.09-.73-.22-1.07-.38-.29-.12-.57-.27-.84-.44-.17-.1-.33-.21-.47-.35l-.91,1.78c.42,.29,.87,.54,1.35,.73,.49,.21,1,.37,1.52,.47,.52,.11,1.05,.17,1.58,.17,.51,0,1.01-.06,1.5-.18,.45-.1,.88-.28,1.26-.54,.36-.25,.65-.59,.85-.98,.22-.44,.33-.93,.32-1.42,.02-.55-.12-1.09-.41-1.56"/><path id="Pfad_579" class="cls-5" d="M92.52,32.63h-2.08l-3.91,10.58h2.11l.89-2.64h3.89l.88,2.64h2.11l-3.89-10.58Zm-2.5,6.5l1.46-4.37,1.44,4.37h-2.91Z"/><rect id="Rechteck_60" class="cls-5" x="97.32" y="41.07" width="1.65" height="2.15"/><path id="Pfad_580" class="cls-5" d="M112.49,38.76c-.05-.06-.1-.12-.16-.18-.34-.38-.79-.65-1.28-.78,.48-.21,.87-.57,1.13-1.03,.25-.44,.39-.93,.39-1.43,0-.45-.1-.89-.29-1.29-.19-.4-.47-.75-.83-1.01-.38-.27-.83-.41-1.29-.4h-5.66v10.58h5.11c.17,0,.33,0,.5-.03,.41-.03,.82-.13,1.21-.28,.49-.19,.92-.51,1.25-.92,.31-.43,.48-.95,.46-1.48,.02-.63-.16-1.24-.53-1.75m-5.94-4.36h2.83c.21,0,.42,.06,.59,.17,.18,.12,.32,.28,.41,.46,.11,.22,.17,.46,.16,.7,0,.24-.05,.49-.17,.7-.11,.19-.26,.35-.46,.46-.19,.11-.4,.17-.62,.16h-2.75v-2.67Zm3.06,7.08h-3.06v-2.8h3.16c.23,0,.45,.06,.64,.19,.19,.13,.34,.31,.44,.51,.11,.23,.17,.48,.16,.73,0,.24-.06,.47-.18,.68-.12,.21-.28,.38-.49,.5-.2,.13-.44,.2-.68,.19"/><rect id="Rechteck_61" class="cls-5" x="114.63" y="32.63" width="2.05" height="10.58"/><path id="Pfad_581" class="cls-5" d="M120.95,41.42v-8.79h-2.06v10.58h7.45v-1.8h-5.39Z"/><path id="Pfad_582" class="cls-5" d="M129.65,41.42v-8.79h-2.05v10.58h7.45v-1.8h-5.39Z"/><path id="Pfad_583" class="cls-8" d="M58.28,77.84C24.58,76.29-1.49,47.71,.07,14.02,.24,10.3,.75,6.6,1.59,2.98H7.26c-.16,.62-.31,1.23-.45,1.85-.87,3.93-1.31,7.93-1.31,11.95,0,.93,.02,1.84,.06,2.75,0,.19,.02,.38,.04,.56-.04,.74-.05,1.49-.05,2.24,0,29.58,23.17,53.99,52.72,55.51"/><path id="Pfad_584" class="cls-5" d="M95.21,67.54c-9.26,6.23-20.06,9.8-31.21,10.3h-.01c-.47,.02-.94,.04-1.42,.05s-.96,.02-1.44,.02c-.96,0-1.91-.02-2.86-.07C28.73,76.32,5.55,51.92,5.56,22.33c0-.75,.01-1.5,.05-2.24,1.22,20.39,13.51,38.48,32.02,47.12,14.77,9.04,32.91,10.7,49.07,4.48,2.95-1.13,5.8-2.52,8.51-4.15"/><path id="Pfad_585" class="cls-6" d="M112.31,47.28h2.72c-4.75,8.35-11.58,15.33-19.82,20.27-2.71,1.63-5.56,3.02-8.51,4.15-16.16,6.22-34.3,4.56-49.07-4.48,7.36,3.44,15.38,5.21,23.51,5.2,.91,0,1.82-.02,2.72-.07,4.46-.21,8.87-.96,13.15-2.23,11.43-2.15,21.9-7.84,29.91-16.27h.01c1.95-2.06,3.75-4.26,5.37-6.58"/><path id="Pfad_586" class="cls-6" d="M122.28,19.82c0,2.93-.23,5.86-.68,8.75h-.87c.85-3.52,1.35-7.11,1.5-10.73h.02c0,.18,.01,.36,.01,.54,.01,.48,.02,.96,.02,1.43"/><path id="Pfad_587" class="cls-4" d="M107.68,47.28h4.63c-1.62,2.32-3.42,4.51-5.37,6.56h-.01c-8.02,8.44-18.49,14.13-29.92,16.28,12.6-3.76,23.46-11.85,30.67-22.84"/><path id="Pfad_588" class="cls-4" d="M122.23,17.85c-.15,3.62-.65,7.21-1.5,10.73h-5.21c.6-2.79,.99-5.61,1.15-8.46,.01-.19,.03-.39,.04-.58,.03-.56,.04-1.12,.05-1.68h5.47Z"/></g></g></g></svg>